<?xml version="1.0" encoding="utf-8"?>
<!-- Generator: Adobe Illustrator 27.2.0, SVG Export Plug-In . SVG Version: 6.00 Build 0)  -->
<svg version="1.1" id="Layer_1" xmlns="http://www.w3.org/2000/svg" xmlns:xlink="http://www.w3.org/1999/xlink" x="0px" y="0px"
	 viewBox="0 0 1080 1080" style="enable-background:new 0 0 1080 1080;" xml:space="preserve">
<style type="text/css">
	.st0{fill:#FB2A52;}
	.st1{fill:#FFFFFF;}
</style>
<circle class="st0" cx="540" cy="539.5" r="534.6"/>
<path class="st1" d="M708.8,183.6H371.2L156.5,447.1l-1.7,2.1l74.4,335.5l308.3,151.1l2.4,1.2l310.8-152.3l74.4-335.5L708.8,183.6z
	 M764.1,653.2l95.5-117.8l-41.1,185.1L764.1,653.2z M343.8,687.7l137.8,170.1L283.9,761L343.8,687.7z M427.9,229h224.8L540,374.9
	L427.9,229z M539.4,448.7l0.5,0.6l0.5-0.6l167.9,207.6L540,864.1L370.6,655L539.4,448.7z M341.4,619L208.6,455.1L381.4,243
	L511,411.7L341.4,619z M734.9,689.3l58.9,72.8l-195.4,95.7L734.9,689.3z M871.4,455.1L737.5,620.3L568.9,411.8l130-168.4
	L871.4,455.1z M314.7,651.7l-53.8,65.8l-40.4-182.1L314.7,651.7z"/>
</svg>
